<svg id="Ebene_1" data-name="Ebene 1" xmlns="http://www.w3.org/2000/svg" viewBox="0 0 113.39 113.39"><defs><style>.cls-1{fill:#fff;}</style></defs><path class="cls-1" d="M106.94,58.05C80.37,46.51,70,36.12,58.44,9.54a1.91,1.91,0,0,0-3.49,0C43.41,36.12,33,46.51,6.45,58.05a1.9,1.9,0,0,0,0,3.49C31,72.22,41.77,81.92,52.37,104.35a1.1,1.1,0,0,0,2.1-.46V78.1a5,5,0,0,1-2.79-4.47,5,5,0,1,1,10,0,5,5,0,0,1-2.79,4.49v25.79a1.1,1.1,0,0,0,2.09.46c10.61-22.43,21.35-32.13,45.93-42.81A1.9,1.9,0,0,0,106.94,58.05Z"/></svg>