<svg id="Ebene_1" data-name="Ebene 1" xmlns="http://www.w3.org/2000/svg" viewBox="0 0 197.27 63.8"><defs><style>.cls-1{fill:#fff;}</style></defs><path class="cls-1" d="M24.52,30l-1.94,0,5.48-13.08h6L26.7,32.7H20.26L12.88,16.92h6.25Z"/><path class="cls-1" d="M44,33.15a12,12,0,0,1-5.13-1,8.61,8.61,0,0,1-3.55-3A7.57,7.57,0,0,1,34,24.74a7.58,7.58,0,0,1,1.24-4.32,8.36,8.36,0,0,1,3.42-2.92,11.09,11.09,0,0,1,4.9-1.05,9.14,9.14,0,0,1,4.86,1.23,8.22,8.22,0,0,1,3.09,3.47,11.88,11.88,0,0,1,1.1,5.28h-14V23H49.43l-1.86,1.19a4.85,4.85,0,0,0-.6-2.06,3.47,3.47,0,0,0-1.32-1.29,4.07,4.07,0,0,0-1.95-.44,4.3,4.3,0,0,0-2.13.5,3.56,3.56,0,0,0-1.38,1.37,4,4,0,0,0-.5,2,4.55,4.55,0,0,0,.68,2.53,4.31,4.31,0,0,0,2,1.59,8.3,8.3,0,0,0,3.22.55,13.29,13.29,0,0,0,3.47-.46,12.38,12.38,0,0,0,3.14-1.28v3.59a12.66,12.66,0,0,1-3.72,1.7A16.19,16.19,0,0,1,44,33.15Z"/><path class="cls-1" d="M54.18,16.92h5.75l.94,5.64V32.7H55.23V22.23Zm14.1-.25v4.81a13.7,13.7,0,0,0-1.56-.23,13.24,13.24,0,0,0-1.34-.07,5.2,5.2,0,0,0-2.24.48,3.71,3.71,0,0,0-1.65,1.59,6.09,6.09,0,0,0-.62,3l-1.08-1.33a20.58,20.58,0,0,1,.67-3.22A9.93,9.93,0,0,1,61.66,19a5.85,5.85,0,0,1,1.89-1.85,5.24,5.24,0,0,1,2.77-.68c.31,0,.63,0,1,.05S68,16.6,68.28,16.67Z"/><path class="cls-1" d="M70.21,11.42h5.67V21.51L75.14,23v4l.74,1.38V32.7H70.21Zm3.85,13.41a11.6,11.6,0,0,1,1.52-4.44,8.16,8.16,0,0,1,2.91-2.9,8.33,8.33,0,0,1,8.08,0,7.22,7.22,0,0,1,2.73,2.93,9.3,9.3,0,0,1,1,4.4,9.24,9.24,0,0,1-1,4.35,7.09,7.09,0,0,1-2.73,2.93,8.39,8.39,0,0,1-8.09,0,8.12,8.12,0,0,1-2.9-2.92A11.69,11.69,0,0,1,74.06,24.83Zm10.53,0a4.47,4.47,0,0,0-.48-2.11,3.65,3.65,0,0,0-3.33-2,4.66,4.66,0,0,0-2.16.53,6,6,0,0,0-1.8,1.43,6.71,6.71,0,0,0-1.19,2.11,6.86,6.86,0,0,0,1.19,2.07,5.69,5.69,0,0,0,1.8,1.42,4.77,4.77,0,0,0,2.16.51,3.85,3.85,0,0,0,2-.51,3.6,3.6,0,0,0,1.34-1.42A4.39,4.39,0,0,0,84.59,24.83Z"/><path class="cls-1" d="M108.31,24.83a11.88,11.88,0,0,1-1.53,4.36,8.39,8.39,0,0,1-2.91,2.92,7.71,7.71,0,0,1-4,1,7.88,7.88,0,0,1-4.08-1,7.21,7.21,0,0,1-2.75-2.93,9.24,9.24,0,0,1-1-4.35,9.31,9.31,0,0,1,1-4.4A7.33,7.33,0,0,1,95.8,17.5a7.79,7.79,0,0,1,4.08-1.05,7.61,7.61,0,0,1,4,1,8.44,8.44,0,0,1,2.92,2.9A11.28,11.28,0,0,1,108.31,24.83Zm-10.53,0a4.39,4.39,0,0,0,.48,2.07,3.53,3.53,0,0,0,1.34,1.42,3.77,3.77,0,0,0,2,.51,4.83,4.83,0,0,0,2.19-.51,5.69,5.69,0,0,0,1.8-1.42,6.39,6.39,0,0,0,1.16-2.07,6.28,6.28,0,0,0-1.16-2.11,6,6,0,0,0-1.8-1.43,4.72,4.72,0,0,0-2.19-.53,3.65,3.65,0,0,0-3.3,2A4.47,4.47,0,0,0,97.78,24.83ZM107,32.7,106.26,27l.75-2.18-.75-2.19.72-5.72h5.86l-1,7.88,1,7.9Z"/><path class="cls-1" d="M122.85,17.22h1.49l.83,5V32.7h-1.49V21.9Zm11,0v1.47a5.27,5.27,0,0,0-1.13-.26,9.18,9.18,0,0,0-1.36-.1,6.05,6.05,0,0,0-3.19.84A5.66,5.66,0,0,0,126,21.54a7.56,7.56,0,0,0-.78,3.51l-.61-1a8.25,8.25,0,0,1,.5-2.92,6.45,6.45,0,0,1,1.43-2.26,6.34,6.34,0,0,1,2.18-1.48,7.17,7.17,0,0,1,2.78-.53,8.31,8.31,0,0,1,1.3.1A5.61,5.61,0,0,1,133.8,17.22Z"/><path class="cls-1" d="M151.27,25a13.28,13.28,0,0,1-2,4.23A9.74,9.74,0,0,1,146.23,32a7.91,7.91,0,0,1-3.94,1,7.83,7.83,0,0,1-4-1,7.39,7.39,0,0,1-2.79-2.84,8.39,8.39,0,0,1-1-4.21,8.34,8.34,0,0,1,1-4.21,7.46,7.46,0,0,1,2.79-2.84,7.93,7.93,0,0,1,4-1,7.82,7.82,0,0,1,3.94,1,10,10,0,0,1,3.08,2.84A13.27,13.27,0,0,1,151.27,25ZM136,25a7.09,7.09,0,0,0,.82,3.47A5.9,5.9,0,0,0,139,30.78a6.18,6.18,0,0,0,3.25.85,6.69,6.69,0,0,0,3.34-.85,8.94,8.94,0,0,0,2.71-2.35,14.11,14.11,0,0,0,2-3.47,14,14,0,0,0-2-3.48,9.34,9.34,0,0,0-2.71-2.34,6.79,6.79,0,0,0-3.34-.84,6.27,6.27,0,0,0-3.25.84,6.07,6.07,0,0,0-2.24,2.34A7.1,7.1,0,0,0,136,25Zm14.43,7.74-.49-5.94.66-1.8-.66-1.79.49-6h1.5L151.27,25l.64,7.74Z"/><path class="cls-1" d="M155.33,17.22h1.5l.83,5V32.7h-1.5V21.9Zm10.95,0v1.47a5.13,5.13,0,0,0-1.13-.26,9,9,0,0,0-1.36-.1,6.08,6.08,0,0,0-3.19.84,5.73,5.73,0,0,0-2.17,2.37,7.56,7.56,0,0,0-.77,3.51l-.61-1a8,8,0,0,1,.5-2.92,6.46,6.46,0,0,1,3.6-3.74,7.17,7.17,0,0,1,2.78-.53,8.22,8.22,0,0,1,1.3.1A5.61,5.61,0,0,1,166.28,17.22Z"/><path class="cls-1" d="M183.75,25a13.07,13.07,0,0,1-2,4.23A9.64,9.64,0,0,1,178.71,32a8.31,8.31,0,0,1-8,0,7.39,7.39,0,0,1-2.79-2.84,8.49,8.49,0,0,1-1-4.21,8.44,8.44,0,0,1,1-4.21,7.46,7.46,0,0,1,2.79-2.84,8,8,0,0,1,4-1,7.79,7.79,0,0,1,3.94,1,9.87,9.87,0,0,1,3.08,2.84A13.06,13.06,0,0,1,183.75,25Zm-15.28,0a7.2,7.2,0,0,0,.81,3.47,6,6,0,0,0,2.24,2.35,6.18,6.18,0,0,0,3.25.85,6.67,6.67,0,0,0,3.34-.85,8.83,8.83,0,0,0,2.71-2.35,13.8,13.8,0,0,0,2-3.47,13.69,13.69,0,0,0-2-3.48,9.21,9.21,0,0,0-2.71-2.34,6.76,6.76,0,0,0-3.34-.84,6.27,6.27,0,0,0-3.25.84,6.15,6.15,0,0,0-2.24,2.34A7.21,7.21,0,0,0,168.47,25ZM182.9,32.7l-.5-5.94.66-1.8-.66-1.79.5-6h1.49L183.75,25l.64,7.74Z"/><path class="cls-1" d="M33.84,50.72h-3l-.58,1.58h-.7L32,45.73h.76l2.41,6.57h-.7Zm-.2-.55-1.31-3.6L31,50.17Z"/><path class="cls-1" d="M38.82,48.29a2.22,2.22,0,0,1,.89-.93,2.83,2.83,0,0,1,2.89.14,2.15,2.15,0,0,1,.81,1.3h-.72a1.46,1.46,0,0,0-.57-.88A1.86,1.86,0,0,0,41,47.6a1.83,1.83,0,0,0-.94.24,1.71,1.71,0,0,0-.67.71,2.9,2.9,0,0,0,0,2.31,1.74,1.74,0,0,0,.67.72,1.83,1.83,0,0,0,.94.24,1.86,1.86,0,0,0,1.1-.32,1.51,1.51,0,0,0,.57-.89h.72a2.16,2.16,0,0,1-.81,1.28,2.48,2.48,0,0,1-1.58.49,2.58,2.58,0,0,1-1.31-.33,2.28,2.28,0,0,1-.89-.93,3,3,0,0,1-.33-1.42A2.88,2.88,0,0,1,38.82,48.29Z"/><path class="cls-1" d="M45.59,52.05a2.35,2.35,0,0,1-.92-.93,2.84,2.84,0,0,1-.34-1.42,2.78,2.78,0,0,1,.34-1.41,2.34,2.34,0,0,1,.94-.93A2.64,2.64,0,0,1,46.93,47a2.7,2.7,0,0,1,1.33.33,2.31,2.31,0,0,1,.93.93,2.78,2.78,0,0,1,.34,1.41,2.88,2.88,0,0,1-.34,1.41,2.39,2.39,0,0,1-.95.94,2.7,2.7,0,0,1-1.33.33A2.64,2.64,0,0,1,45.59,52.05Zm2.27-.49a1.77,1.77,0,0,0,.71-.7,2.31,2.31,0,0,0,.27-1.16,2.38,2.38,0,0,0-.26-1.15,1.79,1.79,0,0,0-.71-.71,2.08,2.08,0,0,0-1.9,0,1.71,1.71,0,0,0-.7.71A2.28,2.28,0,0,0,45,49.7a2.31,2.31,0,0,0,.26,1.16,1.66,1.66,0,0,0,.69.7,2,2,0,0,0,1.9,0Z"/><path class="cls-1" d="M51.41,45.26v7h-.66v-7Z"/><path class="cls-1" d="M53.59,45.26v7h-.66v-7Z"/><path class="cls-1" d="M59.79,50H55.48a2.13,2.13,0,0,0,.28,1,1.71,1.71,0,0,0,.68.63,2,2,0,0,0,.91.22,1.81,1.81,0,0,0,1.09-.32,1.43,1.43,0,0,0,.59-.85h.71a2.21,2.21,0,0,1-.82,1.25,2.49,2.49,0,0,1-1.57.48A2.63,2.63,0,0,1,56,52.05a2.33,2.33,0,0,1-.91-.93,3.22,3.22,0,0,1,0-2.84,2.24,2.24,0,0,1,.9-.93A2.63,2.63,0,0,1,57.35,47a2.48,2.48,0,0,1,1.3.32,2.24,2.24,0,0,1,.86.87,2.51,2.51,0,0,1,.3,1.22A3.72,3.72,0,0,1,59.79,50Zm-.89-1.53a1.52,1.52,0,0,0-.66-.62,2,2,0,0,0-.91-.21,1.85,1.85,0,0,0-1.27.47,1.92,1.92,0,0,0-.58,1.35h3.66A1.91,1.91,0,0,0,58.9,48.43Z"/><path class="cls-1" d="M61.05,48.29a2.22,2.22,0,0,1,.89-.93,2.83,2.83,0,0,1,2.89.14,2.15,2.15,0,0,1,.81,1.3h-.72a1.46,1.46,0,0,0-.57-.88,1.86,1.86,0,0,0-1.1-.32,1.83,1.83,0,0,0-.94.24,1.71,1.71,0,0,0-.67.71,2.9,2.9,0,0,0,0,2.31,1.74,1.74,0,0,0,.67.72,1.83,1.83,0,0,0,.94.24,1.86,1.86,0,0,0,1.1-.32,1.51,1.51,0,0,0,.57-.89h.72a2.16,2.16,0,0,1-.81,1.28,2.48,2.48,0,0,1-1.58.49,2.58,2.58,0,0,1-1.31-.33,2.28,2.28,0,0,1-.89-.93,3,3,0,0,1-.33-1.42A2.88,2.88,0,0,1,61.05,48.29Z"/><path class="cls-1" d="M67.73,47.66v3.23a.93.93,0,0,0,.18.66.91.91,0,0,0,.64.18h.61v.57h-.71a1.47,1.47,0,0,1-1-.33,1.44,1.44,0,0,1-.34-1.08V47.66h-.73V47.1h.73V45.8h.67v1.3h1.43v.56Z"/><path class="cls-1" d="M70.25,46a.47.47,0,0,1-.15-.35.45.45,0,0,1,.15-.35.46.46,0,0,1,.34-.14.49.49,0,0,1,.34.14.45.45,0,0,1,.14.35.46.46,0,0,1-.14.35.45.45,0,0,1-.34.14A.42.42,0,0,1,70.25,46Zm.67,1.12v5.2h-.67V47.1Z"/><path class="cls-1" d="M73.39,52.05a2.35,2.35,0,0,1-.92-.93,2.84,2.84,0,0,1-.34-1.42,2.78,2.78,0,0,1,.34-1.41,2.34,2.34,0,0,1,.94-.93A2.64,2.64,0,0,1,74.73,47a2.7,2.7,0,0,1,1.33.33,2.31,2.31,0,0,1,.93.93,2.78,2.78,0,0,1,.34,1.41A2.88,2.88,0,0,1,77,51.11a2.39,2.39,0,0,1-.95.94,2.7,2.7,0,0,1-1.33.33A2.64,2.64,0,0,1,73.39,52.05Zm2.27-.49a1.77,1.77,0,0,0,.71-.7,2.31,2.31,0,0,0,.27-1.16,2.38,2.38,0,0,0-.26-1.15,1.79,1.79,0,0,0-.71-.71,2.08,2.08,0,0,0-1.9,0,1.71,1.71,0,0,0-.7.71,2.28,2.28,0,0,0-.26,1.15,2.31,2.31,0,0,0,.26,1.16,1.66,1.66,0,0,0,.69.7,2,2,0,0,0,1.9,0Z"/><path class="cls-1" d="M82.51,47.58a2.28,2.28,0,0,1,.59,1.68v3h-.66v-3A1.8,1.8,0,0,0,82,48a1.53,1.53,0,0,0-1.16-.45,1.6,1.6,0,0,0-1.2.47,2,2,0,0,0-.45,1.4V52.3h-.66V47.1h.66V48a1.75,1.75,0,0,1,.72-.73A2.14,2.14,0,0,1,81,47,2.12,2.12,0,0,1,82.51,47.58Z"/><path class="cls-1" d="M88.14,52.05a2.35,2.35,0,0,1-.92-.93,2.84,2.84,0,0,1-.34-1.42,2.78,2.78,0,0,1,.34-1.41,2.38,2.38,0,0,1,.93-.93A2.7,2.7,0,0,1,89.48,47a2.64,2.64,0,0,1,1.32.33,2.34,2.34,0,0,1,.94.93,2.88,2.88,0,0,1,.34,1.41,2.78,2.78,0,0,1-.35,1.41,2.36,2.36,0,0,1-.94.94,2.7,2.7,0,0,1-1.33.33A2.64,2.64,0,0,1,88.14,52.05Zm2.27-.49a1.77,1.77,0,0,0,.71-.7,2.31,2.31,0,0,0,.27-1.16,2.28,2.28,0,0,0-.27-1.15,1.71,1.71,0,0,0-.7-.71,2.05,2.05,0,0,0-1-.23,2.09,2.09,0,0,0-1,.23,1.77,1.77,0,0,0-.7.71,2.38,2.38,0,0,0-.26,1.15,2.42,2.42,0,0,0,.26,1.16,1.75,1.75,0,0,0,.7.7,1.92,1.92,0,0,0,.95.24A1.94,1.94,0,0,0,90.41,51.56Z"/><path class="cls-1" d="M95.34,47.66H94.13V52.3h-.66V47.66h-.73V47.1h.73v-.36a1.63,1.63,0,0,1,.43-1.25,2.07,2.07,0,0,1,1.4-.39v.57a1.36,1.36,0,0,0-.91.24,1.13,1.13,0,0,0-.26.83v.36h1.21Z"/><path class="cls-1" d="M103.5,47.1v5.2h-.67v-.91a1.57,1.57,0,0,1-.7.74,2.23,2.23,0,0,1-1.07.26,2.06,2.06,0,0,1-1.52-.58A2.24,2.24,0,0,1,99,50.14v-3h.66v3a1.83,1.83,0,0,0,.42,1.3,1.51,1.51,0,0,0,1.16.45,1.57,1.57,0,0,0,1.2-.48,2,2,0,0,0,.44-1.4V47.1Z"/><path class="cls-1" d="M109,47.58a2.24,2.24,0,0,1,.59,1.68v3h-.65v-3a1.76,1.76,0,0,0-.43-1.29,1.49,1.49,0,0,0-1.15-.45,1.6,1.6,0,0,0-1.2.47,2,2,0,0,0-.45,1.4V52.3H105V47.1h.67V48a1.72,1.72,0,0,1,.71-.73,2.18,2.18,0,0,1,1.06-.25A2.09,2.09,0,0,1,109,47.58Z"/><path class="cls-1" d="M115.55,47.1v5.2h-.66v-.91a1.64,1.64,0,0,1-.71.74,2.19,2.19,0,0,1-1.06.26,2.08,2.08,0,0,1-1.53-.58,2.24,2.24,0,0,1-.59-1.67v-3h.66v3a1.83,1.83,0,0,0,.42,1.3,1.53,1.53,0,0,0,1.16.45,1.57,1.57,0,0,0,1.2-.48,2,2,0,0,0,.45-1.4V47.1Z"/><path class="cls-1" d="M117.41,52a1.51,1.51,0,0,1-.64-1.12h.69a1,1,0,0,0,.41.7,1.59,1.59,0,0,0,1,.28,1.31,1.31,0,0,0,.85-.26.79.79,0,0,0,.31-.64.62.62,0,0,0-.17-.44,1.37,1.37,0,0,0-.44-.27,5.1,5.1,0,0,0-.7-.21,7.08,7.08,0,0,1-.95-.31,1.59,1.59,0,0,1-.61-.45,1.2,1.2,0,0,1-.25-.8,1.22,1.22,0,0,1,.22-.71,1.6,1.6,0,0,1,.65-.51,2.24,2.24,0,0,1,1-.19,2.1,2.1,0,0,1,1.36.42,1.56,1.56,0,0,1,.55,1.17H120a1,1,0,0,0-.35-.74,1.33,1.33,0,0,0-.9-.28,1.31,1.31,0,0,0-.82.24.72.72,0,0,0-.32.59.68.68,0,0,0,.19.5,1.23,1.23,0,0,0,.46.3,6.5,6.5,0,0,0,.74.24,7.81,7.81,0,0,1,.9.3,1.46,1.46,0,0,1,.57.42,1.13,1.13,0,0,1,.25.73,1.3,1.3,0,0,1-.23.75,1.58,1.58,0,0,1-.64.52,2.32,2.32,0,0,1-.94.19A2.36,2.36,0,0,1,117.41,52Z"/><path class="cls-1" d="M126.44,47.1v5.2h-.67v-.91a1.59,1.59,0,0,1-.71.74,2.19,2.19,0,0,1-1.06.26,2.06,2.06,0,0,1-1.52-.58,2.2,2.2,0,0,1-.6-1.67v-3h.66v3a1.79,1.79,0,0,0,.43,1.3,1.49,1.49,0,0,0,1.15.45,1.57,1.57,0,0,0,1.2-.48,2,2,0,0,0,.45-1.4V47.1Z"/><path class="cls-1" d="M128,48.29a2.28,2.28,0,0,1,.89-.93,2.49,2.49,0,0,1,1.28-.33,2.33,2.33,0,0,1,1.28.34,2,2,0,0,1,.78.88V47.1h.66v5.2h-.66V51.15a2.08,2.08,0,0,1-.79.88,2.34,2.34,0,0,1-1.28.35,2.39,2.39,0,0,1-1.27-.34,2.31,2.31,0,0,1-.89-.94,3.24,3.24,0,0,1,0-2.81Zm4,.31a2,2,0,0,0-2.67-.74,1.75,1.75,0,0,0-.69.71,2.63,2.63,0,0,0,0,2.24,1.74,1.74,0,0,0,.69.73,2,2,0,0,0,2,0,1.89,1.89,0,0,0,.7-.73,2.33,2.33,0,0,0,.26-1.11A2.29,2.29,0,0,0,131.94,48.6Z"/><path class="cls-1" d="M135.05,45.26v7h-.66v-7Z"/><path class="cls-1" d="M146,47.1l-1.63,5.2h-.67l-1.43-4.36-1.44,4.36h-.68l-1.63-5.2h.68l1.3,4.53L142,47.1h.67l1.44,4.54,1.28-4.54Z"/><path class="cls-1" d="M147.89,52.05a2.35,2.35,0,0,1-.92-.93,2.84,2.84,0,0,1-.34-1.42,2.78,2.78,0,0,1,.34-1.41,2.38,2.38,0,0,1,.93-.93,2.85,2.85,0,0,1,2.66,0,2.38,2.38,0,0,1,.93.93,2.88,2.88,0,0,1,.34,1.41,2.78,2.78,0,0,1-.35,1.41,2.3,2.3,0,0,1-.94.94,2.7,2.7,0,0,1-1.33.33A2.64,2.64,0,0,1,147.89,52.05Zm2.27-.49a1.77,1.77,0,0,0,.71-.7,2.31,2.31,0,0,0,.27-1.16,2.38,2.38,0,0,0-.26-1.15,1.79,1.79,0,0,0-.71-.71,2.08,2.08,0,0,0-1.9,0,1.66,1.66,0,0,0-.7.71,2.28,2.28,0,0,0-.27,1.15,2.31,2.31,0,0,0,.27,1.16,1.66,1.66,0,0,0,.69.7,2,2,0,0,0,1.9,0Z"/><path class="cls-1" d="M154.38,47.28a2.12,2.12,0,0,1,1.11-.27v.69h-.18a1.46,1.46,0,0,0-1.6,1.7v2.9h-.66V47.1h.66V48A1.58,1.58,0,0,1,154.38,47.28Z"/><path class="cls-1" d="M156.51,48.29a2.28,2.28,0,0,1,.89-.93,2.52,2.52,0,0,1,1.28-.33,2.37,2.37,0,0,1,1.24.33,2,2,0,0,1,.81.87v-3h.67v7h-.67V51.14A2,2,0,0,1,160,52a2.34,2.34,0,0,1-1.28.35,2.43,2.43,0,0,1-1.28-.34,2.22,2.22,0,0,1-.88-.94,2.88,2.88,0,0,1-.32-1.41A3,3,0,0,1,156.51,48.29Zm4,.31a1.85,1.85,0,0,0-.7-.74,1.9,1.9,0,0,0-1-.25,1.92,1.92,0,0,0-1,.25,1.63,1.63,0,0,0-.69.71,2.54,2.54,0,0,0,0,2.24,1.63,1.63,0,0,0,.69.73,1.92,1.92,0,0,0,1,.26,1.9,1.9,0,0,0,1-.26,1.82,1.82,0,0,0,.7-.73,2.33,2.33,0,0,0,.26-1.11A2.29,2.29,0,0,0,160.47,48.6Z"/><path class="cls-1" d="M163.25,52a1.51,1.51,0,0,1-.64-1.12h.69a1,1,0,0,0,.41.7,1.59,1.59,0,0,0,1,.28,1.29,1.29,0,0,0,.85-.26.79.79,0,0,0,.31-.64.62.62,0,0,0-.17-.44,1.32,1.32,0,0,0-.43-.27,5.3,5.3,0,0,0-.71-.21,7.6,7.6,0,0,1-1-.31,1.59,1.59,0,0,1-.61-.45,1.2,1.2,0,0,1-.25-.8,1.16,1.16,0,0,1,.23-.71,1.5,1.5,0,0,1,.64-.51,2.25,2.25,0,0,1,1-.19,2.08,2.08,0,0,1,1.35.42,1.56,1.56,0,0,1,.55,1.17h-.67a1,1,0,0,0-.35-.74,1.33,1.33,0,0,0-.9-.28,1.31,1.31,0,0,0-.82.24.72.72,0,0,0-.13,1.09,1.23,1.23,0,0,0,.46.3,7.25,7.25,0,0,0,.74.24,7.2,7.2,0,0,1,.9.3,1.46,1.46,0,0,1,.57.42,1.13,1.13,0,0,1,.25.73,1.3,1.3,0,0,1-.23.75,1.58,1.58,0,0,1-.64.52,2.32,2.32,0,0,1-.94.19A2.36,2.36,0,0,1,163.25,52Z"/></svg>